# xmcd
#
# Track frame offsets:
# 182
# 13217
# 23990
# 36452
# 48910
# 60392
# 70510
# 83522
# 96690
# 106732
# 121115
# 135717
# 152100
# 164862
# 177615
# 191742
# 207205
# 218047
# 230535
# 242777
# 256070
# 268810
# 278737
# 291960
# 305950
#
# Disc length: 4204 seconds
#
# Revision: 1
# Processed by: cddbd v1.4PL0 Copyright (c) Steve Scherf et al.
# Submitted via: CedeCatalogueitor 2.5 http://usuarios.lycos.es/kakasboy
#
DISCID=78106a19
DTITLE=Billie Jo Spears - 50 Original Tracks
DYEAR=1993
DGENRE=
TTITLE0=I Love You Because
TTITLE1=He´s Got More Love In His Little Finger
TTITLE2=Help Me Make It Through The Night
TTITLE3=Marty Gray
TTITLE4=I´ll Share My World With You
TTITLE5=I Stayed Long Enough
TTITLE6=Today I Started Loving You Again
TTITLE7=It Could ´A Been Me
TTITLE8=Snowbird
TTITLE9=See The Funky Little Clown
TTITLE10=Harper Valley PTA
TTITLE11=Blanket On the Ground
TTITLE12=(I Never Promised You A ) Rose Garden
TTITLE13=Stay Away From The Apple Tree
TTITLE14=Lay Down Beside Me
TTITLE15=Silver Wings And Golden Rings
TTITLE16=Livin´ In A House Full Of Love
TTITLE17=What I´ve Got In My Mind
TTITLE18=Apartment No.9
TTITLE19=On The Rebound (with Del Reeves)
TTITLE20=Faded Love
TTITLE21=Never DId Like Whiskey
TTITLE22=Your Old Love Letters
TTITLE23=I´m Not Easy
TTITLE24=Yours Love
EXTD=2 Cds. CD 1.
EXTT0=
EXTT1=
EXTT2=
EXTT3=
EXTT4=
EXTT5=
EXTT6=
EXTT7=
EXTT8=
EXTT9=
EXTT10=
EXTT11=
EXTT12=
EXTT13=
EXTT14=
EXTT15=
EXTT16=
EXTT17=
EXTT18=
EXTT19=
EXTT20=
EXTT21=
EXTT22=
EXTT23=
EXTT24=
PLAYORDER=
